<svg viewBox="0 0 1e3 1e3" xmlns="http://www.w3.org/2000/svg"><path d="m785 163h-76c-4 44-40 78-85 78h-207c-45 0-81-34-85-78h-76c-32 0-58 26-58 58v715c0 32 26 58 58 58h529c32 0 58-26 58-58v-715c-1e-29 -32-26-58-58-58zm-73 483h-382c-8 0-14-6-14-14s6-14 14-14h382c8 0 14 6 14 14s-6 14-14 14zm0-83h-382c-8 0-14-6-14-14s6-14 14-14h382c8 0 14 6 14 14s-6 14-14 14zm0-83h-382c-8 0-14-6-14-14s6-14 14-14h382c8 0 14 6 14 14s-6 14-14 14zm0-83h-382c-8 0-14-6-14-14s6-14 14-14h382c8 0 14 6 14 14s-6 14-14 14z"/><path d="m612 69c-6 0-11 1-16 2-2-40-35-71-75-71s-73 32-75 71c-5-1-11-2-16-2-41 0-75 34-75 75s34 75 75 75h182c41 0 75-34 75-75s-34-75-75-75zm-91 49c-24 0-43-19-43-43s19-43 43-43 43 19 43 43-19 43-43 43z"/></svg>