<svg viewBox="950 1475 250 250" xmlns="http://www.w3.org/2000/svg"><path d="m1075 1586c53-26 53-26 106-52l-0 131c-51 27-51 26-106 55z" fill="#e8e8e8"/><path d="m1075 1479c-35 17-74 38-109 55 57 27 58 27 109 52 56-27 55-27 107-52-65-34-65-34-107-55z" fill="#fefefe"/><path d="m966 1534c50 24 52 25 109 52v132c-59-27-59-27-110-53z" fill="#c0c0c0"/><path d="m963 1667v-136c60-29 60-29 112-55 50 26 50 26 108 55v136c-51 25-51 25-108 55-54-26-57-27-112-55zm216-4v-128c-58-30-58-30-104-53-51 26-53 25-107 52l1 129c49 26 50 26 106 53 55-28 54-28 104-53z"/></svg>